<?xml version="1.0" encoding="UTF-8" standalone="no"?>
<!-- Created with Inkscape (http://www.inkscape.org/) -->

<svg
   width="109.03245mm"
   height="70.122955mm"
   viewBox="0 0 109.03245 70.122955"
   version="1.1"
   id="svg5"
   inkscape:version="1.1.1 (3bf5ae0d25, 2021-09-20)"
   sodipodi:docname="LOGO capforum.svg"
   xmlns:inkscape="http://www.inkscape.org/namespaces/inkscape"
   xmlns:sodipodi="http://sodipodi.sourceforge.net/DTD/sodipodi-0.dtd"
   xmlns="http://www.w3.org/2000/svg"
   xmlns:svg="http://www.w3.org/2000/svg">
  <sodipodi:namedview
     id="namedview7"
     pagecolor="#ffffff"
     bordercolor="#666666"
     borderopacity="1.0"
     inkscape:pageshadow="2"
     inkscape:pageopacity="0.0"
     inkscape:pagecheckerboard="0"
     inkscape:document-units="mm"
     showgrid="false"
     fit-margin-top="0"
     fit-margin-left="0"
     fit-margin-right="0"
     fit-margin-bottom="0"
     inkscape:zoom="0.77771465"
     inkscape:cx="397.31796"
     inkscape:cy="561.25984"
     inkscape:window-width="1335"
     inkscape:window-height="1081"
     inkscape:window-x="439"
     inkscape:window-y="181"
     inkscape:window-maximized="0"
     inkscape:current-layer="layer1" />
  <defs
     id="defs2">
    <rect
       x="470.96671"
       y="395.85565"
       width="200.97285"
       height="79.171127"
       id="rect13" />
    <rect
       x="50.074047"
       y="426.98276"
       width="408.0358"
       height="128.5685"
       id="rect12" />
    <rect
       x="38.278591"
       y="466.99884"
       width="499.53564"
       height="223.92976"
       id="rect1" />
  </defs>
  <g
     inkscape:label="Warstwa 1"
     inkscape:groupmode="layer"
     id="layer1">
    <g
       inkscape:label="Warstwa 1"
       id="layer1-8"
       transform="translate(-4.0824606,-42.97326)">
      <path
         id="rect3"
         style="opacity:1;fill:#000000;fill-opacity:1;stroke-width:9.765"
         d="m 40.668164,50.542847 c 5.033588,-2.812721 8.716698,-7.276263 20.874717,-7.565356 7.760771,-0.128552 14.422297,2.69437 21.938524,5.464423 6.295588,2.320195 9.452051,3.459827 12.133168,5.940974 1.101753,0.923218 1.820654,2.477013 2.20509,4.581694 0.29133,1.301949 -0.177206,3.681935 -0.136598,6.245304 0.02909,1.83618 0.266966,4.174863 0.306036,5.373342 l 1.057694,4.822903 c 1.101645,-0.05823 7.271205,1.790908 6.573745,8.432113 4.36254,1.576583 7.62309,5.235977 7.49046,10.269074 -0.46128,5.575926 -4.84133,11.643422 -11.56401,8.576472 -1.973333,2.0386 -4.76634,2.77362 -8.184715,2.31532 -0.615924,1.47965 -1.066868,3.15769 -2.259239,4.38173 -0.80239,0.97784 -1.7646,1.86407 -3.002867,2.57629 -0.498747,0.25503 -1.34906,0.96762 -2.54068,1.09743 -0.763314,0.30688 -2.25727,-1.12111 -4.867949,-2.99424 -1.882052,-1.35035 -4.47099,-2.65205 -5.891656,-3.15933 -2.067146,-0.57927 -3.758291,-1.29292 -5.662143,-1.74155 -1.57001,-0.36996 -3.360618,-0.48122 -4.960992,-0.87548 l -13.07632,-1.32209 -11.901296,-2.04625 c -1.419338,-0.0933 -2.995818,-0.28222 -4.83946,-0.38987 -1.751298,0.0326 -3.440276,0.19504 -5.067277,0.37174 -3.011814,0.21712 -8.762411,1.50882 -13.294675,2.94454 -2.26886,0.71872 -4.981297,2.52074 -6.2860663,2.43179 -0.5726243,-0.3177 -8.72087628,-3.4762 -4.270302,-18.228374 1.5118682,-4.395496 3.814176,-6.773989 4.7379583,-7.120147 2.158543,-1.388401 3.438349,-1.087934 5.707486,-0.310587 3.012598,-6.535297 8.739963,-16.550176 10.214004,-17.763444 5.611368,-6.890966 12.555406,-10.825065 14.567363,-12.308411 z"
         sodipodi:nodetypes="ccsccscccccccccscscccccsccccccc" />
      <path
         id="rect3-8"
         style="opacity:1;fill:#ff2a2a;stroke-width:9.76505"
         d="m 45.288057,56.904634 c 3.9519,-1.998819 6.843531,-5.170769 16.388862,-5.376209 6.093025,-0.09135 11.323027,1.914714 17.22406,3.883212 4.942702,1.648814 7.420859,2.458676 9.52582,4.221866 0.864994,0.656072 1.4294,1.760253 1.731226,3.255914 0.228731,0.925212 -0.139122,2.616513 -0.107241,4.438134 0.02284,1.304855 0.209594,2.966805 0.240271,3.818487 l 5.991484,9.419482 c 3.425056,1.120376 5.984921,3.720871 5.880811,7.297568 -0.36216,3.96245 -3.800963,8.274223 -9.078977,6.094744 -1.549272,1.448698 -3.742077,1.971025 -6.425866,1.645341 -0.483566,1.051492 -0.837605,2.243968 -1.773742,3.113813 -0.629961,0.694888 -1.385398,1.324674 -2.357568,1.830794 -0.39157,0.18123 -1.059155,0.68762 -1.994702,0.77987 -0.599283,0.21809 -1.772197,-0.7967 -3.821854,-2.127796 -1.477611,-0.959619 -3.510201,-1.884647 -4.625573,-2.245135 -1.622929,-0.411648 -2.950657,-0.918792 -4.445382,-1.237606 -1.232624,-0.262907 -2.63844,-0.341976 -3.894904,-0.622145 L 53.478489,94.155444 44.134714,92.701308 c -1.114332,-0.06631 -2.352035,-0.200556 -3.799488,-0.277057 -1.374955,0.02317 -2.70098,0.138603 -3.978349,0.264173 -2.364592,0.154289 -6.879419,1.072219 -10.437725,2.092489 -1.781295,0.51075 -3.910844,1.791323 -4.935227,1.728112 -0.449571,-0.225766 -6.84681,-2.470306 -3.352639,-12.953718 3.650507,-6.630447 10.822397,-12.357885 16.219852,-17.903874 4.405518,-4.896963 9.857321,-7.692673 11.436919,-8.746791 z"
         sodipodi:nodetypes="ccsccsccccccccscscccccsccccc" />
      <path
         id="rect3-8-4"
         style="opacity:0.295218;fill:#2b0000;stroke-width:9.76509"
         d="m 51.361336,51.464203 c 3.464084,-2.178355 5.998776,-5.635212 14.365848,-5.859105 5.340912,-0.09957 9.92533,2.086697 15.097949,4.232006 4.332583,1.796912 6.50484,2.679515 8.349968,4.601076 0.758221,0.715001 1.252957,1.91836 1.517526,3.548362 0.200498,1.008316 -0.121949,2.851531 -0.094,4.836771 0.02002,1.422058 0.183722,3.233286 0.210614,4.161467 l 5.251903,10.265545 c 3.002276,1.221009 5.246136,4.055083 5.154876,7.953042 -0.31744,4.318359 -3.331762,9.017418 -7.958261,6.642177 -1.35804,1.57882 -3.280165,2.148063 -5.63267,1.793126 -0.423876,1.145938 -0.734213,2.445524 -1.554796,3.393494 -0.552199,0.757305 -1.214386,1.443668 -2.066553,1.995244 -0.343235,0.197519 -0.928414,0.749376 -1.74848,0.849927 -0.525306,0.237675 -1.553438,-0.868274 -3.35009,-2.318935 -1.295216,-1.045805 -3.076907,-2.05392 -4.054599,-2.446785 -1.422598,-0.448623 -2.586432,-1.001321 -3.896651,-1.34877 -1.080471,-0.286522 -2.312755,-0.372693 -3.414123,-0.678027 L 58.54076,92.060905 50.350364,90.476158 c -0.976779,-0.07227 -2.061703,-0.218569 -3.330485,-0.301943 -1.205232,0.02525 -2.367575,0.151052 -3.487267,0.287901 -2.07271,0.168147 -6.030235,1.168527 -9.14931,2.280438 -1.561414,0.556626 -3.428095,1.952221 -4.32603,1.883333 -0.394076,-0.246045 -6.00165,-2.69219 -2.938795,-14.11723 3.199894,-7.225998 9.486498,-13.467879 14.2177,-19.512013 3.861707,-5.336809 8.640549,-8.383634 10.025164,-9.532432 z"
         sodipodi:nodetypes="ccsccsccccccccscscccccsccccc" />
      <path
         id="path3-3"
         style="fill:#000000;fill-opacity:1;stroke:none;stroke-width:0;stroke-dasharray:none;stroke-opacity:1"
         d="m 97.001421,75.554621 c -1.134548,0.0065 -2.335715,0.299258 -3.560218,0.962646 -1.638532,0.772099 -3.261458,2.106097 -4.666787,4.185231 -1.759673,0.121725 -2.934966,0.679466 -3.692626,1.51293 -8.507629,6.270094 3.468173,31.726682 17.58422,19.873572 3.06861,1.23207 7.46326,-1.20475 8.80461,-5.225627 1.08619,-2.918459 0.78979,-8.238295 -6.21924,-12.634089 -0.25803,-0.186127 -0.50791,-0.372228 -0.78363,-0.557714 9.6e-4,-0.01177 9.6e-4,-0.02404 0.003,-0.03584 0.38162,-1.161698 0.0764,-2.632636 -0.71947,-4.001352 -0.48521,-1.04136 -1.2288,-2.017206 -2.3057,-2.728408 -0.62235,-0.437911 -1.38665,-0.7786 -2.234758,-0.995783 -0.696997,-0.227779 -1.436179,-0.360049 -2.209091,-0.355575 z" />
      <path
         id="path3"
         style="opacity:1;fill:#b3b3b3;stroke:none;stroke-width:0;stroke-dasharray:none;stroke-opacity:1"
         d="M 101.28961,99.364298 C 89.24861,109.46821 79.23883,84.102757 90.72714,83.162815 c 6.05676,-8.660464 13.13023,-1.383698 11.93623,2.119396 11.22151,7.540029 3.08674,15.871819 -1.37376,14.082087 z"
         sodipodi:nodetypes="cccc" />
      <path
         id="path3-7"
         style="opacity:1;fill:#ffffff;stroke:none;stroke-width:5.29167;stroke-dasharray:none;stroke-opacity:1"
         d="m 101.98548,95.565615 c -6.595407,6.822715 -13.398088,-0.124519 -14.686917,-5.732244 -0.709926,-3.088909 -0.785397,-6.530832 3.364848,-6.817743 3.070199,-4.539183 7.495066,-4.447074 9.692379,-2.90203 1.94193,1.281622 2.47789,3.683082 2.30716,5.230848 8.88452,5.111805 5.1142,12.14655 3.81219,11.667857 -1.55843,-0.303216 -2.05141,0.225655 -4.48966,-1.446688 z"
         sodipodi:nodetypes="csccccc" />
      <path
         id="rect3-1"
         style="opacity:1;fill:#000000;stroke-width:9.765"
         d="m 92.03734,90.609073 c 3.685912,5.637534 2.075487,10.156657 1.46337,14.177367 -0.629476,1.52762 -0.48609,2.45438 -1.704697,3.7181 -0.820044,1.00954 -1.154415,1.83498 -2.419927,2.57028 -0.509721,0.2633 -2.788661,1.80466 -4.006499,1.93868 -0.780109,0.31683 -0.359906,-1.02317 -3.028027,-2.95702 -1.923461,-1.39413 -4.569362,-2.73802 -6.021287,-3.26175 -2.112628,-0.59805 -3.840982,-1.33483 -5.786724,-1.798 -1.604554,-0.38195 -3.43456,-0.49682 -5.070146,-0.90386 l -13.364032,-1.36495 -12.163154,-2.11258 c -1.450567,-0.0963 -3.061734,-0.29137 -4.94594,-0.40251 -1.789831,0.0337 -3.515971,0.20136 -5.17877,0.38379 -3.078082,0.22416 -8.955206,1.55773 -13.587191,3.03999 -2.318781,0.74202 -5.090898,2.60246 -6.4243764,2.51062 -0.5852231,-0.328 -8.91275745,-3.58888 -4.3642593,-18.81926 1.5451339,-4.537991 3.8980974,-6.993583 4.8422057,-7.350964 2.206037,-1.433407 3.514001,-1.123197 5.833065,-0.320659 2.236993,0.510641 5.512538,0.577046 9.645321,0.425855 4.128933,-0.151052 10.602339,-0.939941 16.175293,-0.268821 21.370723,1.483458 42.309557,6.043741 50.105775,10.795692 z"
         sodipodi:nodetypes="cccccscscccccsccccscc" />
      <path
         id="rect3-1-6"
         style="opacity:1;fill:#b3b3b3;stroke-width:9.765"
         d="m 87.760543,92.611086 c 3.364261,4.10457 3.750052,7.459074 3.191351,10.386494 -0.0049,1.30211 -0.741994,3.63956 -1.72766,4.87614 -0.748484,0.73502 -2.817085,2.35067 -3.972162,2.88603 -0.465241,0.19171 -2.65101,-2.15277 -3.762574,-2.0552 -0.712031,0.23069 -2.13727,-1.06425 -4.572555,-2.47226 -1.755612,-1.01503 -4.075669,-1.58205 -5.40089,-1.96336 -1.928269,-0.43543 -3.252601,-0.94022 -5.028548,-1.27746 -1.464532,-0.27808 -3.071544,-0.64656 -4.5644,-0.9429 l -12.007918,-1.7534 -11.101732,-1.538123 c -1.323984,-0.0701 -2.794552,-0.212138 -4.514333,-0.293057 -1.63364,0.02444 -3.209148,0.146607 -4.726843,0.279429 -2.809472,0.163207 -8.173727,1.13415 -12.401501,2.213361 -2.116433,0.54024 -6.29242,2.65437 -7.509532,2.58752 -0.534152,-0.23881 -5.9195089,-2.42311 -1.7679364,-13.512013 1.4102969,-3.304015 3.4788034,-5.898946 4.3405254,-6.159148 2.045176,-0.458116 2.84338,0.511508 4.92842,0.415352 2.041781,0.371786 4.999835,-0.117909 8.77197,-0.227986 3.768621,-0.10998 11.489218,-1.056469 16.575846,-0.567839 19.953394,0.587721 40.238281,4.763439 45.250472,9.11842 z"
         sodipodi:nodetypes="cccccscscccccsccccscc" />
      <path
         id="rect3-1-6-5"
         style="fill:#ffffff;stroke-width:9.76504"
         d="m 88.579602,91.214028 c 3.279056,3.461296 3.655077,6.290083 3.110526,8.758705 -0.0048,1.098037 -0.723202,3.069167 -1.683905,4.111947 -0.729527,0.61982 -2.745739,1.98227 -3.871562,2.43372 -0.453458,0.16167 -2.58387,-1.81538 -3.667282,-1.7331 -0.693997,0.19453 -2.08314,-0.89746 -4.456747,-2.08481 -1.71115,-0.85595 -3.972448,-1.3341 -5.264106,-1.65565 -1.879432,-0.36719 -3.170224,-0.79287 -4.901192,-1.077259 -1.427441,-0.234499 -2.993754,-0.54523 -4.448801,-0.795128 l -11.7038,-1.478604 -10.820566,-1.297064 c -1.290452,-0.05911 -2.723776,-0.178891 -4.400001,-0.247128 -1.592266,0.02061 -3.127872,0.12363 -4.607129,0.235636 -2.738319,0.137629 -7.966715,0.956404 -12.087416,1.866477 -2.062831,0.455573 -6.133055,2.23837 -7.319342,2.182 -0.520624,-0.20138 -5.7695895,-2.043356 -1.723161,-11.394387 1.374578,-2.786205 3.390698,-4.974455 4.230595,-5.193878 1.99338,-0.386319 2.771367,0.431344 4.803601,0.350258 1.99007,0.313519 4.873207,-0.09943 8.549808,-0.192256 3.673175,-0.09274 11.198237,-0.890898 16.156039,-0.478846 19.448047,0.495612 39.219191,4.016905 44.104441,7.689367 z"
         sodipodi:nodetypes="cccccscscccccsccccscc" />
      <path
         id="rect5"
         style="opacity:1;fill:#000000;stroke-width:5.29167"
         d="m 82.811706,62.862407 c 3.537518,-2.438377 5.220137,2.164378 3.071952,3.46663 -3.060326,4.511578 -2.714444,12.625251 -2.18487,18.227087 L 81.76833,88.141427 C 80.633897,82.975786 77.303925,70.78326 82.811706,62.862407 Z"
         sodipodi:nodetypes="ccccc" />
      <path
         id="rect5-4"
         style="opacity:0.280665;fill:#000000;stroke-width:5.29167"
         d="m 76.43971,81.132797 c -0.486849,2.375384 -2.420651,1.495319 -2.063277,0.127323 -0.409741,-3.057353 -3.637481,-6.705189 -5.774357,-8.839543 0,0 -0.845547,-0.974193 -0.5736,-1.381717 0.248731,-0.372733 0.802458,-0.15295 1.242365,0.188204 2.556086,1.982287 6.598389,5.282007 7.168869,9.905733 z"
         sodipodi:nodetypes="cccasc" />
      <path
         id="rect5-4-9"
         style="opacity:0.453222;fill:#000000;stroke-width:5.29167"
         d="m 76.124598,75.560888 c 1.851469,1.56573 2.827019,-0.321699 1.700238,-1.175808 -1.568559,-2.656106 -1.287626,-7.518833 -0.928091,-10.517573 0,0 0.06209,-1.28846 -0.403626,-1.440574 -0.425966,-0.139114 -0.725224,0.376014 -0.859981,0.916154 -0.783022,3.138457 -1.91937,8.231307 0.49146,12.217801 z"
         sodipodi:nodetypes="cccasc" />
      <text
         xml:space="preserve"
         transform="scale(0.26458333)"
         id="text1"
         style="font-size:40px;line-height:1.25;font-family:impa;-inkscape-font-specification:impa;letter-spacing:0px;word-spacing:0px;white-space:pre;shape-inside:url(#rect1)" />
      <text
         xml:space="preserve"
         transform="matrix(0.26443435,-0.00887746,0.00887746,0.26443435,1.770514,-27.803786)"
         id="text12"
         style="font-size:40px;line-height:1.25;font-family:impa;-inkscape-font-specification:impa;letter-spacing:0px;word-spacing:0px;white-space:pre;shape-inside:url(#rect12)"><tspan
           x="50.074219"
           y="462.37305"
           id="tspan79">CAP</tspan></text>
      <text
         xml:space="preserve"
         transform="matrix(0.26179534,0.03830848,-0.03830848,0.26179534,-61.254295,-37.15009)"
         id="text13"
         style="font-size:40px;line-height:1.25;font-family:impa;-inkscape-font-specification:impa;letter-spacing:0px;word-spacing:0px;white-space:pre;shape-inside:url(#rect13)"><tspan
           x="470.9668"
           y="431.24609"
           id="tspan81">FORUM</tspan></text>
    </g>
  </g>
</svg>
